HIERARCHY
ROOT SpineBase
{
  OFFSET 0.000000 0.000000 0.000000
  CHANNELS 6 Xposition Yposition Zposition Zrotation Xrotation Yrotation
  JOINT SpineMid
  {
    OFFSET 0.000000 37.562225 0.000000
    CHANNELS 3 Zrotation Xrotation Yrotation
    JOINT SpineShoulder
    {
      OFFSET 0.284427 27.468953 -0.671034
      CHANNELS 3 Zrotation Xrotation Yrotation
      JOINT Neck
      {
        OFFSET 0.175980 9.025344 -0.522740
        CHANNELS 3 Zrotation Xrotation Yrotation
        JOINT Head
        {
          OFFSET 1.041310 13.417689 4.200242
          CHANNELS 3 Zrotation Xrotation Yrotation
          End Site
          {
            OFFSET 0 0 0
          }
        }
      }
      JOINT ShoulderLeft
      {
        OFFSET -0.886295 -5.481386 -11.245752
        CHANNELS 3 Zrotation Xrotation Yrotation
        JOINT ElbowLeft
        {
          OFFSET 15.194911 -24.654449 -4.680398
          CHANNELS 3 Zrotation Xrotation Yrotation
          JOINT WristLeft
          {
            OFFSET 7.553754 -22.870165 4.756901
            CHANNELS 3 Zrotation Xrotation Yrotation
            JOINT HandLeft
            {
              OFFSET 0.401159 -7.978028 5.389074
              CHANNELS 3 Zrotation Xrotation Yrotation
              JOINT HandTipLeft
              {
                OFFSET 4.570487 -8.719049 2.334783
                CHANNELS 3 Zrotation Xrotation Yrotation
                End Site
                {
                  OFFSET 0 0 0
                }
              }
              JOINT ThumbLeft
              {
                OFFSET -5.154013 -0.901262 -0.363200
                CHANNELS 3 Zrotation Xrotation Yrotation
                End Site
                {
                  OFFSET 0 0 0
                }
              }
            }
          }
        }
      }
      JOINT ShoulderRight
      {
        OFFSET 14.195033 -9.220641 -13.697976
        CHANNELS 3 Zrotation Xrotation Yrotation
        JOINT ElbowRight
        {
          OFFSET 5.195946 -28.277373 1.231463
          CHANNELS 3 Zrotation Xrotation Yrotation
          JOINT WristRight
          {
            OFFSET 4.667951 -26.977029 7.033856
            CHANNELS 3 Zrotation Xrotation Yrotation
            JOINT HandRight
            {
              OFFSET 0.776370 -5.919601 1.391997
              CHANNELS 3 Zrotation Xrotation Yrotation
              JOINT HandTipRight
              {
                OFFSET 0.218747 -6.120229 1.886875
                CHANNELS 3 Zrotation Xrotation Yrotation
                End Site
                {
                  OFFSET 0 0 0
                }
              }
              JOINT ThumbRight
              {
                OFFSET -1.162191 3.185009 0.475992
                CHANNELS 3 Zrotation Xrotation Yrotation
                End Site
                {
                  OFFSET 0 0 0
                }
              }
            }
          }
        }
      }
    }
  }
  JOINT HipLeft
  {
    OFFSET -5.163745 1.266147 -0.952819
    CHANNELS 3 Zrotation Xrotation Yrotation
    JOINT KneeLeft
    {
      OFFSET -3.994813 -41.413662 4.824066
      CHANNELS 3 Zrotation Xrotation Yrotation
      JOINT AnkleLeft
      {
        OFFSET -7.103755 -36.531061 9.019160
        CHANNELS 3 Zrotation Xrotation Yrotation
        JOINT FootLeft
        {
          OFFSET 12.195933 -6.700223 -5.942285
          CHANNELS 3 Zrotation Xrotation Yrotation
          End Site
          {
            OFFSET 0 0 0
          }
        }
      }
    }
  }
  JOINT HipRight
  {
    OFFSET 7.251545 -0.018692 -6.224250
    CHANNELS 3 Zrotation Xrotation Yrotation
    JOINT KneeRight
    {
      OFFSET -4.597518 -39.185320 6.936617
      CHANNELS 3 Zrotation Xrotation Yrotation
      JOINT AnkleRight
      {
        OFFSET -5.107573 -38.536403 5.823913
        CHANNELS 3 Zrotation Xrotation Yrotation
        JOINT FootRight
        {
          OFFSET -5.979807 -5.361209 2.403153
          CHANNELS 3 Zrotation Xrotation Yrotation
          End Site
          {
            OFFSET 0 0 0
          }
        }
      }
    }
  }
}
MOTION
Frames: 9
Frame Time: 0.033333
-80.681823 84.625741 284.299887 -0.000000 0.000000 23.005681 -0.000000 0.000000 -23.005681 -0.000000 0.000000 0.000000 -0.000000 0.000000 0.000000 0.000000 0.000000 0.000000 -0.000000 0.000000 0.000000 -0.000000 0.000000 0.000000 -0.000000 0.000000 0.000000 -0.000000 0.000000 0.000000 0.000000 0.000000 0.000000 0.000000 0.000000 0.000000 -0.000000 0.000000 0.000000 -0.000000 0.000000 0.000000 -0.000000 0.000000 0.000000 -0.000000 0.000000 0.000000 0.000000 0.000000 0.000000 0.000000 0.000000 0.000000 -0.000000 0.000000 -23.005681 -0.000000 0.000000 0.000000 -0.000000 0.000000 0.000000 0.000000 0.000000 0.000000 -0.000000 0.000000 -23.005681 -0.000000 0.000000 0.000000 -0.000000 0.000000 0.000000 0.000000 0.000000 0.000000
-80.528163 84.882876 284.260467 0.121831 0.126603 23.167563 -0.161815 -0.068463 -23.167794 -0.000000 0.000000 0.000000 -0.000000 0.000000 0.000000 0.000000 0.000000 0.000000 -0.000000 0.000000 0.000000 -0.707728 -0.663247 -0.370677 -1.277154 0.984289 -0.932509 0.654982 -0.314377 0.963008 0.000000 0.000000 0.000000 0.000000 0.000000 0.000000 -0.000000 0.000000 0.000000 -0.000000 0.000000 0.000000 -5.222489 -4.028111 -1.936603 6.008502 5.407026 1.823921 0.000000 0.000000 0.000000 0.000000 0.000000 0.000000 -0.161815 -0.068463 -23.167794 -0.000000 0.000000 0.000000 -3.150930 -0.334265 2.298276 0.000000 0.000000 0.000000 -0.161815 -0.068463 -23.167794 -0.000000 0.000000 0.000000 3.176355 6.581121 -6.467255 0.000000 0.000000 0.000000
-80.392565 85.118180 284.222197 0.222551 0.243720 23.305707 -0.300818 -0.135782 -23.306537 -0.000000 0.000000 0.000000 -0.000000 0.000000 0.000000 0.000000 0.000000 0.000000 -0.000000 0.000000 0.000000 -1.290452 -1.304139 -0.714826 -2.448872 2.244437 -1.674111 1.111275 -0.750329 1.845111 0.000000 0.000000 0.000000 0.000000 0.000000 0.000000 -0.000000 0.000000 0.000000 -0.546728 -1.216855 -0.358227 -9.721008 -6.171914 -3.479985 11.370963 10.322443 3.034131 0.000000 0.000000 0.000000 0.000000 0.000000 0.000000 -0.300818 -0.135782 -23.306537 -0.000000 0.000000 0.000000 -6.197868 -0.702428 4.668639 0.000000 0.000000 0.000000 -0.300818 -0.135782 -23.306537 -0.000000 0.000000 0.000000 6.832813 12.148780 -12.664629 0.000000 0.000000 0.000000
-80.275028 85.331653 284.185075 0.301756 0.351065 23.418796 -0.416431 -0.202207 -23.420456 -0.000000 0.000000 0.000000 -0.000000 0.000000 0.000000 0.000000 0.000000 0.000000 1.083848 0.163082 -0.106149 -2.828771 -2.091979 -0.932099 -3.526600 3.772530 -2.230603 1.386709 -1.299989 2.662039 0.000000 0.000000 0.000000 0.000000 0.000000 0.000000 -0.971988 0.083958 -0.026233 0.095211 -1.726933 -0.498067 -13.999924 -8.186519 -5.153957 15.949066 14.435439 3.781498 0.000000 0.000000 0.000000 0.000000 0.000000 0.000000 -0.416431 -0.202207 -23.420456 -0.000000 0.000000 0.000000 -8.861709 -1.029154 6.950269 0.000000 0.000000 0.000000 -0.416431 -0.202207 -23.420456 -0.000000 0.000000 0.000000 10.253154 16.099020 -17.694920 0.000000 0.000000 0.000000
-80.175554 85.523295 284.149103 0.359093 0.448378 23.505707 -0.508131 -0.267941 -23.508300 -0.000000 0.000000 0.000000 -0.000000 0.000000 0.000000 0.000000 0.000000 0.000000 1.349092 0.208676 -0.128989 -3.426049 -2.739565 -1.198126 -4.521925 5.567444 -2.608221 1.496421 -1.957515 3.426820 0.000000 0.000000 0.000000 0.000000 0.000000 0.000000 -1.214840 0.106566 -0.032260 -0.030059 -2.053461 -0.649017 -17.545755 -9.340701 -6.524114 19.622549 17.551164 4.241994 0.000000 0.000000 0.000000 0.000000 0.000000 0.000000 -0.508131 -0.267941 -23.508300 -0.000000 0.000000 0.000000 -10.842268 -1.203921 8.954034 0.000000 0.000000 0.000000 -0.508131 -0.267941 -23.508300 -0.000000 0.000000 0.000000 12.718223 18.271174 -20.778230 0.000000 0.000000 0.000000
-80.094141 85.693106 284.114279 0.394268 0.535425 23.565540 -0.575458 -0.333130 -23.569055 -0.000000 0.000000 0.000000 -0.000000 0.000000 0.000000 0.000000 0.000000 0.000000 1.566313 0.250023 -0.145407 -3.852140 -3.363524 -1.437755 -5.445544 7.634606 -2.812475 1.452168 -2.719663 4.149155 0.000000 0.000000 0.000000 0.000000 0.000000 0.000000 -1.417083 0.126456 -0.037002 -0.233205 -2.254523 -0.791145 -20.198507 -9.639202 -7.444836 22.304180 19.580132 4.573718 0.000000 0.000000 0.000000 0.000000 0.000000 0.000000 -0.575458 -0.333130 -23.569055 -0.000000 0.000000 0.000000 -11.882289 -1.110191 10.494066 0.000000 0.000000 0.000000 -0.575458 -0.333130 -23.569055 -0.000000 0.000000 0.000000 13.754291 18.728666 -21.427733 0.000000 0.000000 0.000000
-80.018613 85.845727 284.070811 0.423118 0.600118 23.590758 -0.627936 -0.380612 -23.595059 -0.000000 0.000000 0.000000 -0.000000 0.000000 0.000000 0.000000 0.000000 0.000000 1.705577 0.272182 -0.158585 -3.940434 -4.236516 -1.709765 -6.665323 11.008860 -2.753461 1.058015 -4.300870 4.777104 0.000000 0.000000 0.000000 0.000000 0.000000 0.000000 -1.610457 0.185760 -0.033484 -0.616041 -2.479753 -0.989062 -21.748460 -7.983295 -7.391745 23.979014 18.737658 4.956999 0.000000 0.000000 0.000000 0.000000 0.000000 0.000000 -0.627936 -0.380612 -23.595059 -0.000000 0.000000 0.000000 -11.766818 0.285997 13.468245 0.000000 0.000000 0.000000 -0.627936 -0.380612 -23.595059 -0.000000 0.000000 0.000000 12.364923 17.160258 -19.037378 0.000000 0.000000 0.000000
-79.938075 85.988982 284.054351 0.443263 0.647296 23.706393 -0.666120 -0.414436 -23.711306 -0.000000 0.000000 0.000000 -0.000000 0.000000 0.000000 0.000000 0.000000 0.000000 1.874921 0.300263 -0.173982 -4.040679 -4.936693 -1.912166 -7.459336 14.213820 -2.446729 0.066207 -5.280475 5.372318 0.000000 0.000000 0.000000 0.000000 0.000000 0.000000 -1.745841 0.212671 -0.033815 -1.033798 -2.416737 -1.129063 -22.330983 -6.686401 -7.176510 25.140143 18.897381 5.313692 0.000000 0.000000 0.000000 0.000000 0.000000 0.000000 -0.666120 -0.414436 -23.711306 -0.000000 0.000000 0.000000 -8.244145 2.855194 14.213198 0.000000 0.000000 0.000000 -0.666120 -0.414436 -23.711306 0.205542 0.873420 -0.086388 11.988372 13.110072 -13.736474 0.000000 0.000000 0.000000
-79.899624 86.087065 284.026872 0.414449 0.710984 23.560325 -0.664111 -0.486029 -23.565714 -0.000000 0.000000 0.000000 -0.000000 0.000000 0.000000 0.000000 0.000000 0.000000 1.949579 0.374800 -0.143926 -3.975748 -5.758505 -2.168804 -8.165145 17.717012 -1.909559 0.490849 -6.782319 6.137122 0.000000 0.000000 0.000000 0.000000 0.000000 0.000000 -1.831128 0.214822 -0.036956 -1.438061 -2.265056 -1.234838 -21.696898 -5.234934 -6.544289 24.077067 18.895484 5.523222 0.000000 0.000000 0.000000 0.000000 0.000000 0.000000 -0.664111 -0.486029 -23.565714 -0.816103 0.198415 -0.238433 -4.147565 3.601812 12.281392 0.000000 0.000000 0.000000 -0.664111 -0.486029 -23.565714 0.278408 0.818480 -0.068492 7.606431 7.782066 -7.273879 0.000000 0.000000 0.000000
